<svg xmlns="http://www.w3.org/2000/svg" viewBox="-40 -30 980 220" role="img" aria-label="WildWooHoo">
  <title>WildWooHoo wordmark - glow variant</title>
  <desc>The outlined geometric wordmark wrapped in a soft white-into-rainbow halo bloom. Same letterform geometry as wordmark.svg, but with the radiant glow treatment that matches monogram-glow.svg. Designed for dark backgrounds; the extended viewBox gives the bloom room to breathe before the canvas crops it.</desc>
  <defs>
    <!-- Rainbow shine used on the existing wordmark, retained for parity. -->
    <linearGradient id="wmg-shine" x1="0" y1="0" x2="1" y2="0">
      <stop offset="0%"   stop-color="#C97A66" stop-opacity="0"/>
      <stop offset="14%"  stop-color="#C97A66" stop-opacity=".42"/>
      <stop offset="28%"  stop-color="#D89E78" stop-opacity=".48"/>
      <stop offset="42%"  stop-color="#E5B96D" stop-opacity=".50"/>
      <stop offset="50%"  stop-color="#FFFFFF" stop-opacity=".72"/>
      <stop offset="58%"  stop-color="#27A05B" stop-opacity=".50"/>
      <stop offset="72%"  stop-color="#B07F30" stop-opacity=".48"/>
      <stop offset="86%"  stop-color="#9985A8" stop-opacity=".42"/>
      <stop offset="100%" stop-color="#7D6E92" stop-opacity="0"/>
    </linearGradient>

    <!-- Outline mask: outer stroke painted, inner stroke cut out. Difference
         is the double-line outline ring. Same geometry as wordmark.svg. -->
    <mask id="wmg-outline" maskUnits="userSpaceOnUse">
      <rect x="-40" y="-30" width="980" height="220" fill="white"/>
      <g fill="none" stroke="black" stroke-linecap="round" stroke-linejoin="round">
        <path d="M 23 55 L 60.5 120 L 103 65 L 145.5 120 L 183 55" stroke-width="15"/>
        <line x1="212" y1="70" x2="212" y2="120" stroke-width="7"/>
        <line x1="230" y1="55" x2="230" y2="120" stroke-width="7"/>
        <line x1="273" y1="55" x2="273" y2="120" stroke-width="7"/>
        <path d="M 273 70 A 25 25 0 0 0 273 120" stroke-width="7"/>
        <path d="M 299.5 55 L 337 120 L 379.5 65 L 422 120 L 459.5 55" stroke-width="15"/>
        <circle cx="504" cy="95" r="18" stroke-width="7"/>
        <circle cx="558" cy="95" r="18" stroke-width="7"/>
        <line x1="608" y1="55" x2="608" y2="120" stroke-width="15"/>
        <line x1="758" y1="55" x2="758" y2="120" stroke-width="15"/>
        <line x1="608" y1="87" x2="758" y2="87" stroke-width="15"/>
        <circle cx="808" cy="95" r="18" stroke-width="7"/>
        <circle cx="862" cy="95" r="18" stroke-width="7"/>
      </g>
    </mask>

    <!-- Soft outer glow for the letterforms: blurred duplicate behind the
         crisp outlined strokes. Tuned to read at small sizes without smear. -->
    <filter id="wmg-glow" x="-30%" y="-100%" width="160%" height="300%">
      <feGaussianBlur stdDeviation="9"/>
    </filter>
  </defs>

  <!-- Blurred bloom layer: solid letterforms in cream, blurred + low opacity. -->
  <g fill="none" stroke="#FFFFFF" stroke-linecap="round" stroke-linejoin="round"
     opacity=".55" filter="url(#wmg-glow)">
    <path d="M 23 55 L 60.5 120 L 103 65 L 145.5 120 L 183 55" stroke-width="22"/>
    <line x1="212" y1="70" x2="212" y2="120" stroke-width="14"/>
    <line x1="230" y1="55" x2="230" y2="120" stroke-width="14"/>
    <line x1="273" y1="55" x2="273" y2="120" stroke-width="14"/>
    <path d="M 273 70 A 25 25 0 0 0 273 120" stroke-width="14"/>
    <path d="M 299.5 55 L 337 120 L 379.5 65 L 422 120 L 459.5 55" stroke-width="22"/>
    <circle cx="504" cy="95" r="18" stroke-width="14"/>
    <circle cx="558" cy="95" r="18" stroke-width="14"/>
    <line x1="608" y1="55" x2="608" y2="120" stroke-width="22"/>
    <line x1="758" y1="55" x2="758" y2="120" stroke-width="22"/>
    <line x1="608" y1="87" x2="758" y2="87" stroke-width="22"/>
    <circle cx="808" cy="95" r="18" stroke-width="14"/>
    <circle cx="862" cy="95" r="18" stroke-width="14"/>
  </g>

  <!-- Crisp outlined letters on top, identical geometry to wordmark.svg. -->
  <g fill="none" stroke="#FBF7EE" stroke-linecap="round" stroke-linejoin="round"
     mask="url(#wmg-outline)">
    <path d="M 23 55 L 60.5 120 L 103 65 L 145.5 120 L 183 55" stroke-width="22"/>
    <line x1="212" y1="70" x2="212" y2="120" stroke-width="14"/>
    <line x1="230" y1="55" x2="230" y2="120" stroke-width="14"/>
    <line x1="273" y1="55" x2="273" y2="120" stroke-width="14"/>
    <path d="M 273 70 A 25 25 0 0 0 273 120" stroke-width="14"/>
    <path d="M 299.5 55 L 337 120 L 379.5 65 L 422 120 L 459.5 55" stroke-width="22"/>
    <circle cx="504" cy="95" r="18" stroke-width="14"/>
    <circle cx="558" cy="95" r="18" stroke-width="14"/>
    <line x1="608" y1="55" x2="608" y2="120" stroke-width="22"/>
    <line x1="758" y1="55" x2="758" y2="120" stroke-width="22"/>
    <line x1="608" y1="87" x2="758" y2="87" stroke-width="22"/>
    <circle cx="808" cy="95" r="18" stroke-width="14"/>
    <circle cx="862" cy="95" r="18" stroke-width="14"/>
  </g>

  <!-- i dot (only filled element). -->
  <circle cx="212" cy="58" r="5" fill="#FBF7EE"/>

  <!-- Rainbow shine for hover-state parity with the live wordmark. -->
  <g class="wwh-wm-shine">
    <rect x="-100" y="-10" width="120" height="180" fill="url(#wmg-shine)" transform="rotate(12 -40 80)"/>
  </g>
</svg>
